HIERARCHY
ROOT Hips
{
  OFFSET -292.659 107.548 -305.403
  CHANNELS 6 Xposition Yposition Zposition Zrotation Xrotation Yrotation
  JOINT ToSpine
  {
    OFFSET -2.69724 7.43032 -0.144315
    CHANNELS 3 Zrotation Xrotation Yrotation
    JOINT Spine
    {
      OFFSET -0.0310711 10.7595 1.96963
      CHANNELS 3 Zrotation Xrotation Yrotation
      JOINT Spine1
      {
        OFFSET 13.1342 3.43533 0.764692
        CHANNELS 3 Zrotation Xrotation Yrotation
        JOINT Neck
        {
          OFFSET 29.8703 7.82586 -0.130764
          CHANNELS 3 Zrotation Xrotation Yrotation
          JOINT Head
          {
            OFFSET 9.52751 0.295786 -0.907742
            CHANNELS 3 Zrotation Xrotation Yrotation
            End Site
            {
              OFFSET 16.4037 0.713936 2.7358
            }
          }
        }
        JOINT LeftShoulder
        {
          OFFSET 27.5574 4.95586 2.47156
          CHANNELS 3 Zrotation Xrotation Yrotation
          JOINT LeftArm
          {
            OFFSET 1.20734 -0.998971 20.1238
            CHANNELS 3 Zrotation Xrotation Yrotation
            JOINT LeftForeArm
            {
              OFFSET 26.8049 -0.0536703 -0.155908
              CHANNELS 3 Zrotation Xrotation Yrotation
              JOINT LeftHand
              {
                OFFSET 26.6817 0 0.320147
                CHANNELS 3 Zrotation Xrotation Yrotation
                End Site
                {
                  OFFSET 18.6119 0 0.382219
                }
              }
            }
          }
        }
        JOINT RightShoulder
        {
          OFFSET 27.5927 4.71444 -2.65209
          CHANNELS 3 Zrotation Xrotation Yrotation
          JOINT RightArm
          {
            OFFSET 2.83739 -1.17114 -18.7564
            CHANNELS 3 Zrotation Xrotation Yrotation
            JOINT RightForeArm
            {
              OFFSET 28.839 -0.0548439 1.22491
              CHANNELS 3 Zrotation Xrotation Yrotation
              JOINT RightHand
              {
                OFFSET 26.5114 0 -0.101894
                CHANNELS 3 Zrotation Xrotation Yrotation
                End Site
                {
                  OFFSET 18.2168 0 0
                }
              }
            }
          }
        }
      }
    }
  }
  JOINT LeftUpLeg
  {
    OFFSET -4.76168 -1.9167 -10.2353
    CHANNELS 3 Zrotation Xrotation Yrotation
    JOINT LeftLeg
    {
      OFFSET 2.55951 -42.0585 -8.02213
      CHANNELS 3 Zrotation Xrotation Yrotation
      JOINT LeftFoot
      {
        OFFSET 3.16357 -42.5282 -3.95426
        CHANNELS 3 Zrotation Xrotation Yrotation
        JOINT LeftToeBase
        {
          OFFSET 0.346054 -6.02161 12.8035
          CHANNELS 3 Zrotation Xrotation Yrotation
          End Site
          {
            OFFSET 0.134235 -1.35082 5.13018
          }
        }
      }
    }
  }
  JOINT RightUpLeg
  {
    OFFSET -4.94151 -1.41743 10.6446
    CHANNELS 3 Zrotation Xrotation Yrotation
    JOINT RightLeg
    {
      OFFSET -2.56294 -42.0364 -7.94377
      CHANNELS 3 Zrotation Xrotation Yrotation
      JOINT RightFoot
      {
        OFFSET -3.0952 -42.555 -4.02241
        CHANNELS 3 Zrotation Xrotation Yrotation
        JOINT RightToeBase
        {
          OFFSET -0.0828122 -6.13587 12.8035
          CHANNELS 3 Zrotation Xrotation Yrotation
          End Site
          {
            OFFSET -0.131328 -1.35082 5.13018
          }
        }
      }
    }
  }
}
MOTION
Frames:	6
Frame Time:	0.00833333
-292.659 107.548 -305.403 62.8184 -42.0108 -26.3489 -70.1915 0 88.8779 115.437 76.4206 -29.4871 -2.98261 31.0348 -3.62036 -153.772 24.541 178.766 -161.871 64.2198 -165.217 0.751513 -12.6736 -23.1228 -96.9561 30.632 -25.994 -2.258 18.5937 -14.0361 0.420957 0.000575521 0.35866 -1.85847 8.29447 36.6735 -85.9429 -28.4423 107.235 17.3879 -1.4491 84.9487 0.58676 0.000331115 0.0646653 -9.55961 -8.59576 89.4947 -5.52909 56.0527 -8.89636 -81.6251 -24.8937 -12.2915 -5.34224 -4.08025 38.2287 -57.9703 0.599991 81.6577 2.32877 15.0644 4.86738 -3.54565 16.9056 -0.167102 1.18222 -9.56187 -0.448963 
-291.342 107.295 -304.459 62.8124 -42.085 -26.0906 -70.1915 0 88.8779 115.426 76.2004 -29.1221 -3.0288 30.8687 -3.69583 -154.54 24.3903 179.472 -162.776 64.0947 -164.795 0.751479 -12.6736 -23.1514 -96.8475 30.0203 -25.536 -2.40572 19.2986 -13.2874 0.420957 0.000575524 0.35866 -1.86973 8.33929 36.6918 -86.0008 -28.2265 107.397 17.4278 -1.1289 85.7564 0.58676 0.000331115 0.0646653 -10.0355 -9.7936 87.4259 -4.8856 53.1118 -7.58072 -82.9303 -24.5355 -12.1438 -5.41765 -3.9607 38.0605 -57.9448 0.934923 81.65 2.59282 14.8704 4.52326 -2.99609 16.7618 -0.310171 1.21064 -9.51389 -0.840023 
-290.035 106.984 -303.548 62.8654 -42.1908 -25.7958 -70.1915 0 88.8779 115.608 75.9636 -29.0095 -3.0787 30.6829 -3.70724 -155.304 24.2317 -179.831 -163.596 63.9647 -164.4 0.751042 -12.6562 -23.2908 -96.7293 29.4757 -25.1401 -2.48901 19.9401 -12.5625 0.420957 0.000575527 0.35866 -1.88457 8.40395 36.6958 -86.0672 -28.0048 107.577 17.6027 -0.924987 86.5643 0.58676 0.000331115 0.0646653 -10.5822 -10.4873 85.0206 -4.2332 50.2847 -6.44446 -83.8601 -24.2774 -12.0307 -5.48807 -3.89408 38.0504 -57.9508 1.30094 81.6874 2.80434 14.8001 4.19431 -2.51455 16.6204 -0.43499 1.24756 -9.63177 -1.11689 
-288.743 106.612 -302.635 62.9365 -42.4494 -25.6029 -70.1915 0 88.8779 115.947 75.8147 -29.2446 -3.11033 30.5667 -3.62631 -155.972 24.0713 -179.289 -164.133 63.8308 -164.193 0.747806 -12.6507 -23.4797 -96.7397 28.8865 -24.7356 -2.49024 20.5321 -11.843 0.420957 0.00057553 0.35866 -1.89596 8.44816 36.7137 -86.1105 -27.7895 107.791 17.7171 -0.847204 87.3781 0.58676 0.000331115 0.0646653 -11.0913 -10.4996 83.162 -3.55907 47.7135 -5.88284 -84.0417 -24.2073 -11.9818 -5.60993 -3.78803 38.1157 -57.9687 1.64641 81.7511 2.90812 14.9101 3.78799 -2.34586 16.5241 -0.477141 1.26886 -9.91394 -1.03206 
-287.47 106.175 -301.686 62.9975 -42.9436 -25.5861 -70.1915 0 88.8779 116.412 75.8076 -29.8746 -3.10717 30.5562 -3.41395 -156.509 23.908 -178.956 -164.271 63.688 -164.256 0.739026 -12.6866 -23.6571 -96.9747 28.1911 -24.2889 -2.35185 21.0562 -11.0867 0.420957 0.00057553 0.35866 -1.89684 8.43162 36.7736 -86.1121 -27.58 108.095 17.7569 -0.880421 88.2073 0.58676 0.000331114 0.0646653 -11.5393 -10.148 82.3032 -3.12031 45.4213 -5.75447 -82.9484 -24.4214 -12.0021 -5.83978 -3.59473 38.3066 -58.0062 1.98774 81.8814 2.86792 15.1427 3.17304 -2.68237 16.6202 -0.389535 1.25348 -10.3929 -0.22736 
-286.226 105.676 -300.678 63.0732 -43.5922 -25.6636 -70.1915 0 88.8779 117.032 75.8747 -30.8444 -3.08475 30.5992 -3.09558 -156.971 23.7413 -178.747 -164.14 63.5378 -164.485 0.722338 -12.7768 -23.8159 -97.3397 27.4596 -23.8435 -2.09653 21.5109 -10.3164 0.420957 0.00057553 0.35866 -1.87796 8.30823 36.8979 -86.0934 -27.3681 108.462 17.8196 -0.792506 88.996 0.58676 0.000331114 0.0646653 -11.9593 -9.7343 82.1378 -2.95196 43.3458 -5.83345 -80.9214 -24.8488 -12.0771 -6.13598 -3.37284 38.6432 -58.0713 2.33169 82.0752 2.72845 15.4912 2.4323 -3.35191 16.8406 -0.216285 1.24325 -11.0545 1.07219 
